# xmcd CD database file
#
# Track frame offsets:
#	182
#	12555
#	25395
#	40375
#	59522
#	84775
#	99015
#	116802
#	127780
#	140772
#	150647
#	164060
#	190925
#	204082
#
# Disc length: 2901 seconds
#
# Revision: 2
# Processed by: cddbd v1.4b41PL1 Copyright (c) Steve Scherf et al.
# Submitted via: Feurio! 1.50.2ß - http://www.feurio.com
#
DISCID=b70b530e
DTITLE=Gilbert Bécaud - The Collection
DYEAR=1900
DGENRE=
TTITLE0=Je Reviens Te Chercher
TTITLE1=Les Cerisiers Sont Blancs
TTITLE2=On Prend Toujours Un Train Pour Quelque Part
TTITLE3=Nathalie
TTITLE4=Quand Il Est Mort Le Poete
TTITLE5=La Fin D´Un Grand Amour
TTITLE6=Monsieur Winter Go Home
TTITLE7=Les Créatures De Reves
TTITLE8=Mon Grand-Pere Le Militaire
TTITLE9=Les Entfants Du Dimanche 
TTITLE10=Tu M´Reconnais Pas
TTITLE11=L´Un D´Entre Eux Inventa La Mort
TTITLE12=Moi Je M´En Vais Demain
TTITLE13=Et Maintenant
EXTD=
EXTT0=
EXTT1=
EXTT2=
EXTT3=
EXTT4=
EXTT5=
EXTT6=
EXTT7=
EXTT8=
EXTT9=
EXTT10=
EXTT11=
EXTT12=
EXTT13=
PLAYORDER=
